<svg width="25" height="32" viewBox="0 0 25 32" fill="none" xmlns="http://www.w3.org/2000/svg">
<path d="M18.3544 0.000391722C18.7194 -0.00985367 18.8855 0.181069 18.7939 0.550351C18.7075 0.898958 18.5417 1.27719 18.4129 1.61727L17.7922 3.29361L15.0623 10.6425L14.2644 12.7942C14.1502 13.1029 13.9127 13.6972 13.8467 13.9925L13.8837 14.0406C14.1532 14.1654 23.2171 14.0143 24.4228 14.0854C24.5348 14.092 24.6484 14.0929 24.7235 14.1892C24.7594 14.2353 24.7825 14.3134 24.7714 14.3696C24.7477 14.4881 24.6099 14.626 24.5266 14.7122C22.918 16.379 21.256 18.0025 19.6235 19.647L11.6504 27.6972L8.66179 30.6968C8.25542 31.1058 7.82335 31.5728 7.38933 31.9418C7.21901 32.0866 6.86949 31.9633 7.02016 31.5488C7.20887 31.0297 7.39806 30.5037 7.58925 29.9864L8.79021 26.7661L10.4867 22.2447C11.1418 20.5004 10.8126 20.8522 12.0835 19.6007C12.4861 19.2043 15.8405 15.9164 15.8987 15.7734C15.8027 15.6554 14.3061 16.2198 14.0329 16.3128L9.84812 17.7307C9.40262 17.8819 8.24919 18.3127 7.83194 18.4036C7.7211 18.4268 7.60835 18.4394 7.49512 18.4418C6.04542 18.476 4.58457 18.4386 3.13359 18.4384C2.70751 18.4384 0.440891 18.4897 0.200459 18.4107C0.117822 18.3836 0.0559385 18.3372 0.0196221 18.2567C-0.00740892 18.1969 -0.00509432 18.1279 0.0178927 18.0675C0.0619512 17.9522 0.150653 17.8479 0.235338 17.7589C0.525469 17.4541 0.83904 17.1668 1.13973 16.8718L2.83404 15.2002L8.15988 9.95328L14.5663 3.64701C15.7338 2.4965 16.9002 1.34027 18.0737 0.195924C18.1692 0.102556 18.2288 0.0520137 18.3544 0.000391722Z" fill="#4880FF"/>
</svg>
